<?xml version="1.0" standalone="no"?>
<!DOCTYPE svg PUBLIC "-//W3C//DTD SVG 20010904//EN"
 "http://www.w3.org/TR/2001/REC-SVG-20010904/DTD/svg10.dtd">
<svg version="1.0" xmlns="http://www.w3.org/2000/svg"
 width="386.000000pt" height="108.000000pt" viewBox="0 0 386.000000 108.000000"
 preserveAspectRatio="xMidYMid meet">
<metadata>
Created by potrace 1.15, written by Peter Selinger 2001-2017
</metadata>
<g transform="translate(0.000000,108.000000) scale(0.100000,-0.100000)"
fill="#000000" stroke="none">
<path d="M1920 890 l0 -70 -51 0 c-43 0 -50 -3 -47 -17 2 -14 15 -19 51 -21
l47 -3 0 -203 c0 -201 0 -203 24 -225 29 -27 89 -27 94 2 3 13 -3 17 -27 17
-55 0 -61 22 -61 227 l0 183 58 0 c63 0 74 4 65 26 -4 10 -23 14 -64 14 l-59
0 0 70 c0 56 -3 70 -15 70 -12 0 -15 -14 -15 -70z"/>
<path d="M140 811 c0 -37 157 -476 171 -476 7 0 38 63 74 152 33 83 63 154 66
158 3 3 37 -66 76 -152 42 -96 75 -158 84 -158 19 0 175 473 161 487 -6 6 -14
8 -19 5 -5 -3 -38 -98 -73 -211 -36 -113 -68 -206 -71 -206 -4 0 -35 66 -69
148 -69 161 -81 181 -97 160 -5 -7 -36 -79 -68 -160 -32 -82 -61 -148 -65
-148 -3 0 -37 94 -74 210 -47 146 -71 210 -81 210 -8 0 -15 -9 -15 -19z"/>
<path d="M1010 815 c-148 -67 -190 -302 -77 -423 52 -56 156 -84 233 -63 48
13 124 75 124 102 0 26 -12 24 -41 -7 -105 -112 -290 -69 -334 78 -28 95 -42
88 180 88 222 0 218 -2 196 79 -14 53 -55 108 -100 134 -43 26 -136 32 -181
12z m157 -46 c48 -23 80 -62 89 -108 l7 -31 -178 0 -177 0 7 28 c10 40 51 89
93 112 48 25 105 25 159 -1z"/>
<path d="M1516 820 c-61 -19 -103 -84 -92 -143 10 -54 59 -89 166 -121 30 -8
70 -25 88 -36 26 -16 32 -26 32 -56 0 -48 -15 -73 -55 -90 -70 -29 -152 -10
-212 48 -29 28 -33 29 -39 13 -10 -25 61 -90 112 -104 145 -40 271 55 224 169
-17 41 -52 64 -136 89 -85 25 -138 58 -142 90 -16 111 140 151 241 63 14 -12
20 -13 30 -3 9 10 5 19 -23 42 -53 45 -125 59 -194 39z"/>
<path d="M2309 816 c-56 -20 -96 -53 -126 -104 -25 -42 -28 -57 -28 -138 0
-83 2 -94 30 -140 80 -129 251 -151 356 -45 104 103 104 269 0 372 -65 66
-148 85 -232 55z m161 -48 c26 -14 57 -41 75 -66 27 -40 30 -51 30 -127 0 -76
-3 -87 -30 -127 -129 -186 -402 -50 -355 177 27 131 165 201 280 143z"/>
<path d="M2893 811 c-29 -14 -52 -35 -72 -67 l-30 -46 -3 53 c-2 40 -7 54 -18
54 -13 0 -15 -33 -15 -235 0 -202 2 -235 15 -235 13 0 16 27 20 162 5 160 5
162 35 205 44 61 90 90 140 86 34 -3 40 0 40 17 0 28 -57 31 -112 6z"/>
<path d="M3107 824 c-4 -4 -7 -89 -7 -189 0 -168 2 -184 23 -225 28 -56 63
-81 120 -87 58 -7 110 11 158 54 l39 35 0 -43 c0 -49 -27 -115 -56 -141 -55
-49 -150 -61 -222 -28 -39 18 -43 18 -49 3 -11 -29 62 -63 137 -63 67 0 113
20 162 70 64 66 70 101 66 385 -3 196 -5 230 -18 230 -13 0 -16 -29 -20 -182
-6 -206 -10 -218 -90 -260 -72 -38 -161 -25 -192 30 -9 15 -15 85 -18 216 -5
182 -11 217 -33 195z"/>
</g>
</svg>
